{
    "asset": {
        "generator": "COLLADA2GLTF",
        "version": "2.0"
    },
    "scenes": [
        {
            "nodes": [
                0
            ]
        }
    ],
    "scene": 0,
    "nodes": [
        {
            "children": [
                1
            ],
            "matrix": [
                1.0,
                0.0,
                0.0,
                0.0,
                0.0,
                0.0,
                -1.0,
                0.0,
                0.0,
                1.0,
                0.0,
                0.0,
                0.0,
                0.0,
                0.0,
                1.0
            ],
            "name": "Z_UP"
        },
        {
            "mesh": 0,
            "matrix": [
                0.16580459475517274,
                0.0,
                0.0,
                0.0,
                0.0,
                -2.7012999836983913e-8,
                0.16580459475517274,
                0.0,
                0.0,
                -0.16580459475517274,
                -2.7012999836983913e-8,
                0.0,
                0.3918409049510956,
                -0.5659924149513245,
                0.0,
                1.0
            ],
            "name": "Elf01_posed_002"
        }
    ],
    "meshes": [
        {
            "primitives": [
                {
                    "attributes": {
                        "NORMAL": 1,
                        "POSITION": 2,
                        "TEXCOORD_0": 3
                    },
                    "indices": 0,
                    "mode": 4,
                    "material": 0
                },
                {
                    "attributes": {
                        "NORMAL": 5,
                        "POSITION": 6,
                        "TEXCOORD_0": 7
                    },
                    "indices": 4,
                    "mode": 4,
                    "material": 1
                },
                {
                    "attributes": {
                        "NORMAL": 9,
                        "POSITION": 10,
                        "TEXCOORD_0": 11
                    },
                    "indices": 8,
                    "mode": 4,
                    "material": 2
                },
                {
                    "attributes": {
                        "NORMAL": 13,
                        "POSITION": 14,
                        "TEXCOORD_0": 15
                    },
                    "indices": 12,
                    "mode": 4,
                    "material": 3
                }
            ],
            "name": "Elf01_posed.002"
        }
    ],
    "accessors": [
        {
            "bufferView": 0,
            "byteOffset": 0,
            "componentType": 5123,
            "count": 1446,
            "max": [
                346
            ],
            "min": [
                0
            ],
            "type": "SCALAR"
        },
        {
            "bufferView": 1,
            "byteOffset": 0,
            "componentType": 5126,
            "count": 347,
            "max": [
                0.8626667261123657,
                1.0,
                0.8626667261123657
            ],
            "min": [
                -0.8626667261123657,
                -1.0,
                -0.8626667261123657
            ],
            "type": "VEC3"
        },
        {
            "bufferView": 1,
            "byteOffset": 4164,
            "componentType": 5126,
            "count": 347,
            "max": [
                11.661139488220217,
                1.6738380193710328,
                11.638070106506348
            ],
            "min": [
                -16.559980392456056,
                -0.9689130187034608,
                -16.58305931091309
            ],
            "type": "VEC3"
        },
        {
            "bufferView": 2,
            "byteOffset": 0,
            "componentType": 5126,
            "count": 347,
            "max": [
                0.9724899530410768,
                0.987211048603058
            ],
            "min": [
                0.010994969867169856,
                0.010650038719177246
            ],
            "type": "VEC2"
        },
        {
            "bufferView": 0,
            "byteOffset": 2892,
            "componentType": 5123,
            "count": 26478,
            "max": [
                7434
            ],
            "min": [
                0
            ],
            "type": "SCALAR"
        },
        {
            "bufferView": 1,
            "byteOffset": 8328,
            "componentType": 5126,
            "count": 7435,
            "max": [
                0.9987182021141052,
                0.999542236328125,
                0.9997559189796448
            ],
            "min": [
                -0.9998779296875,
                -0.9999390244483948,
                -0.999481201171875
            ],
            "type": "VEC3"
        },
        {
            "bufferView": 1,
            "byteOffset": 97548,
            "componentType": 5126,
            "count": 7435,
            "max": [
                5.862991809844971,
                40.90078735351563,
                4.414584159851074
            ],
            "min": [
                -12.933579444885254,
                1.6751279830932618,
                -10.741429328918456
            ],
            "type": "VEC3"
        },
        {
            "bufferView": 2,
            "byteOffset": 2776,
            "componentType": 5126,
            "count": 7435,
            "max": [
                1.9934589862823489,
                0.9981150031089784
            ],
            "min": [
                0.006424963008612394,
                0.00532001256942749
            ],
            "type": "VEC2"
        },
        {
            "bufferView": 0,
            "byteOffset": 55848,
            "componentType": 5123,
            "count": 8040,
            "max": [
                1852
            ],
            "min": [
                0
            ],
            "type": "SCALAR"
        },
        {
            "bufferView": 1,
            "byteOffset": 186768,
            "componentType": 5126,
            "count": 1853,
            "max": [
                0.9996337890625,
                0.9999085068702698,
                0.9999390244483948
            ],
            "min": [
                -0.9999390244483948,
                -0.9968261122703552,
                -0.9990234375
            ],
            "type": "VEC3"
        },
        {
            "bufferView": 1,
            "byteOffset": 209004,
            "componentType": 5126,
            "count": 1853,
            "max": [
                0.6905710101127625,
                42.18294906616211,
                -0.6258140206336975
            ],
            "min": [
                -5.834029674530029,
                36.879337310791019,
                -4.606800079345703
            ],
            "type": "VEC3"
        },
        {
            "bufferView": 2,
            "byteOffset": 62256,
            "componentType": 5126,
            "count": 1853,
            "max": [
                1.987069010734558,
                0.9884020090103148
            ],
            "min": [
                0.014478979632258416,
                0.010820984840393069
            ],
            "type": "VEC2"
        },
        {
            "bufferView": 0,
            "byteOffset": 71928,
            "componentType": 5123,
            "count": 6660,
            "max": [
                1543
            ],
            "min": [
                0
            ],
            "type": "SCALAR"
        },
        {
            "bufferView": 1,
            "byteOffset": 231240,
            "componentType": 5126,
            "count": 1544,
            "max": [
                0.9991455078125,
                0.9999085068702698,
                0.999969482421875
            ],
            "min": [
                -0.9997254014015198,
                -0.9915769100189208,
                -0.9979248046875
            ],
            "type": "VEC3"
        },
        {
            "bufferView": 1,
            "byteOffset": 249768,
            "componentType": 5126,
            "count": 1544,
            "max": [
                1.618791937828064,
                42.78363037109375,
                0.4232330024242401
            ],
            "min": [
                -9.395145416259766,
                31.14925003051758,
                -8.828722953796387
            ],
            "type": "VEC3"
        },
        {
            "bufferView": 2,
            "byteOffset": 77080,
            "componentType": 5126,
            "count": 1544,
            "max": [
                1.541546940803528,
                0.977524995803833
            ],
            "min": [
                0.028726989403367044,
                0.02638000249862671
            ],
            "type": "VEC2"
        }
    ],
    "materials": [
        {
            "pbrMetallicRoughness": {
                "baseColorTexture": {
                    "index": 0
                },
                "metallicFactor": 0.0
            },
            "emissiveFactor": [
                0.0,
                0.0,
                0.0
            ],
            "name": "pasted__lambert2SG_001-effect"
        },
        {
            "pbrMetallicRoughness": {
                "baseColorTexture": {
                    "index": 1
                },
                "metallicFactor": 0.0
            },
            "emissiveFactor": [
                0.0,
                0.0,
                0.0
            ],
            "name": "lambert22SG_001-effect"
        },
        {
            "pbrMetallicRoughness": {
                "baseColorTexture": {
                    "index": 2
                },
                "metallicFactor": 0.0
            },
            "emissiveFactor": [
                0.0,
                0.0,
                0.0
            ],
            "name": "Rig2_lambert23SG_001-effect"
        },
        {
            "pbrMetallicRoughness": {
                "baseColorTexture": {
                    "index": 3
                },
                "metallicFactor": 0.0
            },
            "emissiveFactor": [
                0.0,
                0.0,
                0.0
            ],
            "name": "lambert25SG_001-effect"
        }
    ],
    "textures": [
        {
            "sampler": 0,
            "source": 0
        },
        {
            "sampler": 0,
            "source": 1
        },
        {
            "sampler": 0,
            "source": 2
        },
        {
            "sampler": 0,
            "source": 3
        }
    ],
    "images": [
        {
            "uri": "data:image/jpeg;base64,"
        },
        {
            "uri": "data:image/jpeg;base64,"
        },
        {
            "uri": "data:image/jpeg;base64,"
        },
        {
            "uri": "data:image/jpeg;base64,"
        }
    ],
    "samplers": [
        {
            "magFilter": 9729,
            "minFilter": 9986,
            "wrapS": 10497,
            "wrapT": 10497
        }
    ],
    "bufferViews": [
        {
            "buffer": 0,
            "byteOffset": 357728,
            "byteLength": 85248,
            "target": 34963
        },
        {
            "buffer": 0,
            "byteOffset": 0,
            "byteLength": 268296,
            "byteStride": 12,
            "target": 34962
        },
        {
            "buffer": 0,
            "byteOffset": 268296,
            "byteLength": 89432,
            "byteStride": 8,
            "target": 34962
        }
    ],
    "buffers": [
        {
            "byteLength": 442976,
            "uri": "data:application/octet-stream;base64,"
        }
    ]
}
